<svg width="512" height="512" viewBox="0 0 512 512" fill="none" xmlns="http://www.w3.org/2000/svg">
<g clip-path="url(#clip0_17_10)">
<path d="M256 64C150 64 64 150 64 256C64 362 150 448 256 448C273.7 448 288 462.3 288 480C288 497.7 273.7 512 256 512C114.6 512 0 397.4 0 256C0 114.6 114.6 0 256 0C397.4 0 512 114.6 512 256V288C512 341 469 384 416 384C386.7 384 360.4 370.8 342.8 350.1C320 371.1 289.5 384 256 384C185.3 384 128 326.7 128 256C128 185.3 185.3 128 256 128C283.9 128 309.7 136.9 330.7 152.1C336.4 147.1 343.8 144 352 144C369.7 144 384 158.3 384 176V256V288C384 305.7 398.3 320 416 320C433.7 320 448 305.7 448 288V256C448 150 362 64 256 64ZM320 256C320 239.026 313.257 222.747 301.255 210.745C289.252 198.743 272.974 192 256 192C239.026 192 222.747 198.743 210.745 210.745C198.743 222.747 192 239.026 192 256C192 272.974 198.743 289.252 210.745 301.255C222.747 313.257 239.026 320 256 320C272.974 320 289.252 313.257 301.255 301.255C313.257 289.252 320 272.974 320 256Z" fill="black"/>
</g>
<defs>
<clipPath id="clip0_17_10">
<rect width="512" height="512" fill="white"/>
</clipPath>
</defs>
</svg>
