<svg width="496" height="512" viewBox="0 0 496 512" fill="none" xmlns="http://www.w3.org/2000/svg">
<path d="M487.812 90.6282C481.147 160.728 452.305 330.839 437.626 409.353C431.418 442.573 419.191 453.713 407.357 454.802C381.638 457.172 362.103 437.79 337.19 421.444C298.207 395.867 276.183 379.946 238.342 354.987C194.611 326.145 222.961 310.298 247.882 284.378C254.405 277.598 367.736 174.424 369.929 165.065C370.202 163.894 370.465 159.523 367.868 157.228C365.271 154.933 361.456 155.71 358.697 156.334C354.788 157.223 292.511 198.422 171.867 279.931C154.191 292.079 138.18 297.998 123.834 297.688C108.019 297.347 77.5976 288.74 54.9815 281.38C27.243 272.357 5.1966 267.586 7.11656 252.259C8.11672 244.274 19.1006 236.111 40.0683 227.769C169.192 171.463 255.294 134.341 298.375 116.403C421.38 65.1945 446.94 56.2995 463.6 56.0028C467.264 55.942 475.457 56.8501 480.763 61.16C484.293 64.2301 486.543 68.5144 487.068 73.1653C487.967 78.9402 488.217 84.7976 487.812 90.6282Z" fill="black"/>
</svg>
