<svg width="1336" height="1999" viewBox="0 0 1336 1999" fill="none" xmlns="http://www.w3.org/2000/svg">
<path fill-rule="evenodd" clip-rule="evenodd" d="M1334.19 435.208L1125.78 1387.3V1387.21C1124.97 1391.19 1123.27 1394.94 1120.81 1398.18L689.65 1987.37C687.166 1990.9 683.849 1993.77 679.993 1995.71C676.137 1997.65 671.861 1998.61 667.544 1998.51C663.213 1998.63 658.92 1997.67 655.048 1995.73C651.176 1993.79 647.845 1990.91 645.354 1987.37L214.197 1398.26C211.768 1395.02 210.096 1391.27 209.304 1387.3L0.897434 435.208C-0.637476 429.385 -0.194332 423.216 2.15773 417.672C4.50966 412.128 8.637 407.523 13.8911 404.58L652.863 4.22038C657.243 1.41694 662.344 -0.0492193 667.544 0.00150667C672.354 0.00150667 677.416 1.26721 682.141 4.22038L1321.11 404.58C1326.38 407.51 1330.53 412.11 1332.9 417.655C1335.26 423.2 1335.72 429.375 1334.19 435.208ZM1094.4 1277.86L1243.49 596.955L1009.18 1010.31L1094.4 1277.86ZM1261.67 455.289L1261.71 455.205L1261.8 455.289H1261.67ZM1261.67 455.289H832.497L986.904 940.192L1261.67 455.289ZM815.285 401.205H1214.04L715.891 89.1015L815.285 401.205ZM1069.42 1377.09L972.982 1074.35L694.797 1565.16V1888.82L1069.42 1377.09ZM758.669 401.289L667.544 115.089L576.419 401.289H758.669ZM519.719 401.289L619.113 89.1015L120.963 401.289L519.719 401.289ZM91.6004 596.955L240.607 1277.86V1277.78L325.825 1010.31L91.6004 596.955ZM640.207 1565.07L362.107 1074.35L265.582 1377.09L640.207 1888.82V1565.07ZM502.422 455.289L73.3755 455.289L348.016 940.192L502.422 455.289ZM384.382 1004.23L667.544 1503.82L950.622 1004.23L775.797 455.289H559.207L384.382 1004.23Z" fill="white"/>
</svg>
